<svg width="400" height="400" viewBox="0 0 400 400" fill="none" xmlns="http://www.w3.org/2000/svg">
<rect width="400" height="400" fill="white"/>
<path d="M337.5 65.625H62.5C56.6984 65.625 51.1344 67.9297 47.032 72.032C42.9297 76.1344 40.625 81.6984 40.625 87.5V262.5C40.625 268.302 42.9297 273.866 47.032 277.968C51.1344 282.07 56.6984 284.375 62.5 284.375H337.5C343.302 284.375 348.866 282.07 352.968 277.968C357.07 273.866 359.375 268.302 359.375 262.5V87.5C359.375 81.6984 357.07 76.1344 352.968 72.032C348.866 67.9297 343.302 65.625 337.5 65.625ZM340.625 262.5C340.625 263.329 340.296 264.124 339.71 264.71C339.124 265.296 338.329 265.625 337.5 265.625H62.5C61.6712 265.625 60.8763 265.296 60.2903 264.71C59.7042 264.124 59.375 263.329 59.375 262.5V87.5C59.375 86.6712 59.7042 85.8763 60.2903 85.2903C60.8763 84.7042 61.6712 84.375 62.5 84.375H337.5C338.329 84.375 339.124 84.7042 339.71 85.2903C340.296 85.8763 340.625 86.6712 340.625 87.5V262.5ZM359.375 325C359.375 327.486 358.387 329.871 356.629 331.629C354.871 333.387 352.486 334.375 350 334.375H50C47.5136 334.375 45.129 333.387 43.3709 331.629C41.6127 329.871 40.625 327.486 40.625 325C40.625 322.514 41.6127 320.129 43.3709 318.371C45.129 316.613 47.5136 315.625 50 315.625H350C352.486 315.625 354.871 316.613 356.629 318.371C358.387 320.129 359.375 322.514 359.375 325Z" fill="black"/>
<circle cx="205" cy="155" r="23" fill="#0085FF"/>
<circle cx="218" cy="124" r="23" fill="#FFC700"/>
<circle cx="182" cy="132" r="23" fill="#FF0000"/>
<path d="M255.33 200.397C255.949 199.365 256.297 197.964 256.297 196.505C256.297 195.045 255.949 193.645 255.33 192.612C254.71 191.58 253.87 191 252.994 191H147.303C146.427 191 145.587 191.58 144.967 192.612C144.348 193.645 144 195.045 144 196.505C144 197.964 144.348 199.365 144.967 200.397C145.587 201.429 146.427 202.009 147.303 202.009H252.994C253.87 202.009 254.71 201.429 255.33 200.397Z" fill="black"/>
<path d="M255.33 216.911C255.949 215.878 256.297 214.478 256.297 213.018C256.297 211.558 255.949 210.158 255.33 209.126C254.71 208.094 253.87 207.514 252.994 207.514H147.303C146.427 207.514 145.587 208.094 144.967 209.126C144.348 210.158 144 211.558 144 213.018C144 214.478 144.348 215.878 144.967 216.911C145.587 217.943 146.427 218.523 147.303 218.523H252.994C253.87 218.523 254.71 217.943 255.33 216.911Z" fill="black"/>
<path d="M255.33 233.424C255.949 232.392 256.297 230.992 256.297 229.532C256.297 228.072 255.949 226.672 255.33 225.64C254.71 224.607 253.87 224.028 252.994 224.028H147.303C146.427 224.028 145.587 224.607 144.967 225.64C144.348 226.672 144 228.072 144 229.532C144 230.992 144.348 232.392 144.967 233.424C145.587 234.457 146.427 235.037 147.303 235.037H252.994C253.87 235.037 254.71 234.457 255.33 233.424Z" fill="black"/>
</svg>
