<svg width="400" height="400" viewBox="0 0 400 400" fill="none" xmlns="http://www.w3.org/2000/svg">
<rect width="400" height="400" fill="white"/>
<path d="M337.5 65.625H62.5C56.6984 65.625 51.1344 67.9297 47.032 72.032C42.9297 76.1344 40.625 81.6984 40.625 87.5V262.5C40.625 268.302 42.9297 273.866 47.032 277.968C51.1344 282.07 56.6984 284.375 62.5 284.375H337.5C343.302 284.375 348.866 282.07 352.968 277.968C357.07 273.866 359.375 268.302 359.375 262.5V87.5C359.375 81.6984 357.07 76.1344 352.968 72.032C348.866 67.9297 343.302 65.625 337.5 65.625ZM340.625 262.5C340.625 263.329 340.296 264.124 339.71 264.71C339.124 265.296 338.329 265.625 337.5 265.625H62.5C61.6712 265.625 60.8763 265.296 60.2903 264.71C59.7042 264.124 59.375 263.329 59.375 262.5V87.5C59.375 86.6712 59.7042 85.8763 60.2903 85.2903C60.8763 84.7042 61.6712 84.375 62.5 84.375H337.5C338.329 84.375 339.124 84.7042 339.71 85.2903C340.296 85.8763 340.625 86.6712 340.625 87.5V262.5ZM359.375 325C359.375 327.486 358.387 329.871 356.629 331.629C354.871 333.387 352.486 334.375 350 334.375H50C47.5136 334.375 45.129 333.387 43.3709 331.629C41.6127 329.871 40.625 327.486 40.625 325C40.625 322.514 41.6127 320.129 43.3709 318.371C45.129 316.613 47.5136 315.625 50 315.625H350C352.486 315.625 354.871 316.613 356.629 318.371C358.387 320.129 359.375 322.514 359.375 325Z" fill="black"/>
<path d="M186.504 158.021C187.123 156.988 187.471 155.588 187.471 154.128C187.471 152.669 187.123 151.268 186.504 150.236C185.884 149.204 185.044 148.624 184.168 148.624H78.4769C77.6009 148.624 76.7608 149.204 76.1414 150.236C75.522 151.268 75.174 152.669 75.174 154.128C75.174 155.588 75.522 156.988 76.1414 158.021C76.7608 159.053 77.6009 159.633 78.4769 159.633H184.168C185.044 159.633 185.884 159.053 186.504 158.021Z" fill="black"/>
<path d="M186.504 174.535C187.123 173.502 187.471 172.102 187.471 170.642C187.471 169.182 187.123 167.782 186.504 166.75C185.884 165.718 185.044 165.138 184.168 165.138H78.4769C77.6009 165.138 76.7608 165.718 76.1414 166.75C75.522 167.782 75.174 169.182 75.174 170.642C75.174 172.102 75.522 173.502 76.1414 174.535C76.7608 175.567 77.6009 176.147 78.4769 176.147H184.168C185.044 176.147 185.884 175.567 186.504 174.535Z" fill="black"/>
<path d="M186.504 191.048C187.123 190.016 187.471 188.616 187.471 187.156C187.471 185.696 187.123 184.296 186.504 183.264C185.884 182.231 185.044 181.651 184.168 181.651H78.4769C77.6009 181.651 76.7608 182.231 76.1414 183.264C75.522 184.296 75.174 185.696 75.174 187.156C75.174 188.616 75.522 190.016 76.1414 191.048C76.7608 192.081 77.6009 192.661 78.4769 192.661H184.168C185.044 192.661 185.884 192.081 186.504 191.048Z" fill="black"/>
<circle cx="274" cy="187" r="23" fill="#0085FF"/>
<circle cx="287" cy="156" r="23" fill="#FFC700"/>
<circle cx="251" cy="164" r="23" fill="#FF0000"/>
</svg>
