<svg width="400" height="400" viewBox="0 0 400 400" fill="none" xmlns="http://www.w3.org/2000/svg">
<rect width="400" height="400" transform="matrix(-1 0 0 1 400 0)" fill="white"/>
<path d="M62.5 65.625H337.5C343.302 65.625 348.866 67.9297 352.968 72.032C357.07 76.1344 359.375 81.6984 359.375 87.5V262.5C359.375 268.302 357.07 273.866 352.968 277.968C348.866 282.07 343.302 284.375 337.5 284.375H62.5C56.6984 284.375 51.1344 282.07 47.0321 277.968C42.9297 273.866 40.625 268.302 40.625 262.5V87.5C40.625 81.6984 42.9297 76.1344 47.0321 72.032C51.1344 67.9297 56.6984 65.625 62.5 65.625ZM59.375 262.5C59.375 263.329 59.7043 264.124 60.2903 264.71C60.8764 265.296 61.6712 265.625 62.5 265.625H337.5C338.329 265.625 339.124 265.296 339.71 264.71C340.296 264.124 340.625 263.329 340.625 262.5V87.5C340.625 86.6712 340.296 85.8763 339.71 85.2903C339.124 84.7042 338.329 84.375 337.5 84.375H62.5C61.6712 84.375 60.8764 84.7042 60.2903 85.2903C59.7043 85.8763 59.375 86.6712 59.375 87.5V262.5ZM40.625 325C40.625 327.486 41.6127 329.871 43.3709 331.629C45.129 333.387 47.5136 334.375 50 334.375H350C352.486 334.375 354.871 333.387 356.629 331.629C358.387 329.871 359.375 327.486 359.375 325C359.375 322.514 358.387 320.129 356.629 318.371C354.871 316.613 352.486 315.625 350 315.625H50C47.5136 315.625 45.129 316.613 43.3709 318.371C41.6127 320.129 40.625 322.514 40.625 325Z" fill="black"/>
<path d="M151.798 133.133L92.4149 165.573C91.3941 166.128 90.5568 166.881 89.9775 167.766C89.3983 168.65 89.0951 169.638 89.0951 170.642C89.0951 171.646 89.3983 172.634 89.9775 173.519C90.5568 174.403 91.3941 175.156 92.4149 175.711L151.798 208.152C152.917 208.763 154.217 209.114 155.56 209.167C156.904 209.22 158.239 208.973 159.424 208.453C160.61 207.932 161.6 207.158 162.29 206.212C162.98 205.266 163.343 204.185 163.341 203.083V138.202C163.343 137.1 162.98 136.018 162.29 135.072C161.6 134.126 160.61 133.352 159.424 132.831C158.239 132.311 156.904 132.064 155.56 132.117C154.217 132.17 152.917 132.521 151.798 133.133Z" fill="#FF0000"/>
<path d="M213.496 158.021C212.877 156.988 212.529 155.588 212.529 154.128C212.529 152.669 212.877 151.268 213.496 150.236C214.116 149.204 214.956 148.624 215.832 148.624H321.523C322.399 148.624 323.239 149.204 323.859 150.236C324.478 151.268 324.826 152.669 324.826 154.128C324.826 155.588 324.478 156.988 323.859 158.021C323.239 159.053 322.399 159.633 321.523 159.633H215.832C214.956 159.633 214.116 159.053 213.496 158.021Z" fill="black"/>
<path d="M213.496 174.535C212.877 173.502 212.529 172.102 212.529 170.642C212.529 169.182 212.877 167.782 213.496 166.75C214.116 165.718 214.956 165.138 215.832 165.138H321.523C322.399 165.138 323.239 165.718 323.859 166.75C324.478 167.782 324.826 169.182 324.826 170.642C324.826 172.102 324.478 173.502 323.859 174.535C323.239 175.567 322.399 176.147 321.523 176.147H215.832C214.956 176.147 214.116 175.567 213.496 174.535Z" fill="black"/>
<path d="M213.496 191.048C212.877 190.016 212.529 188.616 212.529 187.156C212.529 185.696 212.877 184.296 213.496 183.264C214.116 182.231 214.956 181.651 215.832 181.651H321.523C322.399 181.651 323.239 182.231 323.859 183.264C324.478 184.296 324.826 185.696 324.826 187.156C324.826 188.616 324.478 190.016 323.859 191.048C323.239 192.081 322.399 192.661 321.523 192.661H215.832C214.956 192.661 214.116 192.081 213.496 191.048Z" fill="black"/>
</svg>
