<svg xmlns="http://www.w3.org/2000/svg" version="1.1" xmlns:xlink="http://www.w3.org/1999/xlink" xmlns:svgjs="http://svgjs.dev/svgjs" width="1280" height="720" preserveAspectRatio="none" viewBox="0 0 1280 720"><g mask="url(&quot;#SvgjsMask1052&quot;)" fill="none"><rect width="1280" height="720" x="0" y="0" fill="rgba(210, 111, 23, 1)"></rect><path d="M0,584.869C105.758,564.82,165.996,456.952,260.23,404.926C364.159,347.548,518.801,366.634,579.784,264.778C640.104,164.029,598.538,27.85,550.011,-79.08C507.549,-172.646,409.451,-220.828,329.895,-285.855C264.494,-339.312,196.928,-381.746,125.18,-426.325C24.588,-488.826,-60.268,-624.156,-176.28,-600.356C-289.517,-577.125,-298.192,-411.339,-373.856,-323.948C-449.476,-236.608,-587.615,-200.179,-619.018,-89.001C-650.796,23.502,-584.238,138.304,-534.278,243.996C-484.881,348.497,-429.88,455.109,-332.435,517.279C-235.135,579.357,-113.396,606.366,0,584.869" fill="#89480f"></path><path d="M1280 1253.9099999999999C1384.885 1279.395 1499.1100000000001 1260.0349999999999 1594.001 1208.595 1692.483 1155.208 1779.407 1070.488 1814.56 964.125 1848.498 861.44 1803.024 753.717 1779.205 648.225 1757.275 551.102 1751.005 443.333 1680.9850000000001 372.544 1612.234 303.038 1506.009 296.457 1410.52 275.49 1321.451 255.933 1233.964 244.575 1143.313 254.48700000000002 1036.626 266.152 914.879 261.958 839.1120000000001 337.969 762.75 414.578 767.85 537.106 754.595 644.458 741.593 749.76 702.785 868.693 762.774 956.2090000000001 822.828 1043.82 958.762 1023.626 1050.819 1076.612 1136.259 1125.789 1184.205 1230.634 1280 1253.9099999999999" fill="#ec994f"></path></g><defs><mask id="SvgjsMask1052"><rect width="1280" height="720" fill="#ffffff"></rect></mask></defs></svg>