<svg xmlns="http://www.w3.org/2000/svg" version="1.1" xmlns:xlink="http://www.w3.org/1999/xlink" xmlns:svgjs="http://svgjs.dev/svgjs" width="1280" height="720" preserveAspectRatio="none" viewBox="0 0 1280 720"><g mask="url(&quot;#SvgjsMask1048&quot;)" fill="none"><rect width="1280" height="720" x="0" y="0" fill="#0e2a47"></rect><path d="M 0,608 C 51.2,490.8 153.6,70.6 256,22 C 358.4,-26.6 409.6,340.8 512,365 C 614.4,389.2 665.6,104.4 768,143 C 870.4,181.6 921.6,572.6 1024,558 C 1126.4,543.4 1228.8,167.6 1280,70L1280 720L0 720z" fill="#184a7e"></path><path d="M 0,202 C 85.4,251 256.2,421.8 427,447 C 597.8,472.2 683.4,320.6 854,328 C 1024.6,335.4 1194.8,452.8 1280,484L1280 720L0 720z" fill="#2264ab"></path></g><defs><mask id="SvgjsMask1048"><rect width="1280" height="720" fill="#ffffff"></rect></mask></defs></svg>