<svg version="1.1" viewBox="0.0 0.0 300.0 170.0" fill="none" stroke="none" stroke-linecap="square" stroke-miterlimit="10" xmlns:xlink="http://www.w3.org/1999/xlink" xmlns="http://www.w3.org/2000/svg"><clipPath id="g2c285d2dd50_1_8.0"><path d="m0 0l300.0 0l0 170.0l-300.0 0l0 -170.0z" clip-rule="nonzero"/></clipPath><g clip-path="url(#g2c285d2dd50_1_8.0)"><path fill="#0b1114" d="m0 0l300.0 0l0 170.0l-300.0 0z" fill-rule="evenodd"/><path fill="#000000" fill-opacity="0.0" d="m23.855642 73.863625l0 0c0 -2.9339828 2.3784618 -5.3124466 5.312443 -5.3124466l241.5011 0c1.4089355 0 2.7601929 0.55970764 3.7564697 1.5559845c0.99627686 0.99627686 1.5559692 2.3475113 1.5559692 3.756462l0 21.24913c0 2.9339828 -2.3784485 5.312439 -5.312439 5.312439l-241.5011 0l0 0c-2.933981 0 -5.312443 -2.378456 -5.312443 -5.312439z" fill-rule="evenodd"/><path stroke="#ffffff" stroke-width="4.0" stroke-linejoin="round" stroke-linecap="butt" d="m23.855642 73.863625l0 0c0 -2.9339828 2.3784618 -5.3124466 5.312443 -5.3124466l241.5011 0c1.4089355 0 2.7601929 0.55970764 3.7564697 1.5559845c0.99627686 0.99627686 1.5559692 2.3475113 1.5559692 3.756462l0 21.24913c0 2.9339828 -2.3784485 5.312439 -5.312439 5.312439l-241.5011 0l0 0c-2.933981 0 -5.312443 -2.378456 -5.312443 -5.312439z" fill-rule="evenodd"/><path fill="#000000" fill-opacity="0.0" d="m151.92093 83.91338l31.244095 0l0 2.173233l-31.244095 0z" fill-rule="evenodd"/><path stroke="#ffffff" stroke-width="3.0" stroke-linejoin="round" stroke-linecap="butt" d="m151.92093 83.91338l31.244095 0l0 2.173233l-31.244095 0z" fill-rule="evenodd"/><path fill="#000000" fill-opacity="0.0" d="m189.09163 83.91338l31.244095 0l0 2.173233l-31.244095 0z" fill-rule="evenodd"/><path stroke="#ffffff" stroke-width="3.0" stroke-linejoin="round" stroke-linecap="butt" d="m189.09163 83.91338l31.244095 0l0 2.173233l-31.244095 0z" fill-rule="evenodd"/><path fill="#000000" fill-opacity="0.0" d="m226.26459 83.91338l31.24408 0l0 2.173233l-31.24408 0z" fill-rule="evenodd"/><path stroke="#ffffff" stroke-width="3.0" stroke-linejoin="round" stroke-linecap="butt" d="m226.26459 83.91338l31.24408 0l0 2.173233l-31.24408 0z" fill-rule="evenodd"/></g></svg>